
<svg width="512px" height="512px" viewBox="0 0 512 512" version="1.1" xmlns="http://www.w3.org/2000/svg" xmlns:xlink="http://www.w3.org/1999/xlink">
    <defs>
        <linearGradient x1="50%" y1="0%" x2="50%" y2="100%" id="linearGradient-1">
            <stop stop-color="#666666" stop-opacity="0.5" offset="0%"></stop>
            <stop stop-color="#000000" stop-opacity="0.5" offset="100%"></stop>
        </linearGradient>
        <circle id="path-2" cx="256" cy="256" r="256"></circle>
    </defs>
        <g id="Oval" fill-rule="nonzero">
            <use fill="#333333" xlink:href="#path-2"></use>
            <use fill="url(#linearGradient-1)" xlink:href="#path-2"></use>
        </g>
        <g transform="translate(38.979424, 38.979424)" fill="#FFFFFF">
            <g transform="translate(0.000000, 99.351852)" id="Infinitacle">
                <g fill-rule="nonzero">
                    <path d="M245.653941,95.5915026 C275.792401,57.9001255 309.417846,38.094693 346.530275,36.1752052 C383.595114,36.1752052 434.739374,60.3407339 434.739374,120.772163 C434.739374,177.671033 405.001727,237.191358 324.358483,237.191358 C281.217348,237.191358 238.912222,210.972523 213.50152,185.550449 C158.10713,130.13127 133.101076,49.6927501 83.9376567,49.6927501 C52.539198,49.6927501 28.6784755,61.674551 12.3554894,85.6381528 C31.0236488,38.3631241 64.8588779,12.2659382 113.861177,7.34659504 C169.426679,4.26632401 198.965929,47.7599344 247.56848,97.5931954 C296.171031,147.426456 359.044835,163.798814 359.044835,123.681868 C359.044835,82.1242637 291.584516,109.633534 278.718925,123.681868 C268.913104,117.300491 257.891443,107.937036 245.653941,95.5915026 Z" id="Path"></path>
                    <path d="M22.308792,87.4158619 C41.7291841,87.4158619 38.3189544,115.762296 18.8985624,115.762296 C-0.521829719,115.762296 2.88839994,87.4158619 22.308792,87.4158619 Z" id="Path-2"></path>
                    <path d="M65.7451211,102.932099 C86.3589288,102.932099 79.4366458,134.684294 58.8228381,134.684294 C38.2090303,134.684294 45.1313133,102.932099 65.7451211,102.932099 Z" id="Path-2"></path>
                    <path d="M51.9485934,63.5493827 C71.3689855,63.5493827 68.3792487,88.9288973 48.9588566,88.9288973 C29.5384645,88.9288973 32.5282013,63.5493827 51.9485934,63.5493827 Z" id="Path-2"></path>
                    <path d="M253.28046,56.3888889 C265.727587,56.3888889 253.28046,78.1652553 237.017304,78.1652553 C220.754149,78.1652553 240.833333,56.3888889 253.28046,56.3888889 Z" id="Path-2"></path>
                    <path d="M230.847975,39.2650489 C239.600832,39.2650489 220.501713,56.3007137 213.048221,56.3007137 C205.594729,56.3007137 222.095118,39.2650489 230.847975,39.2650489 Z" id="Path-2"></path>
                    <path d="M268.589695,9.84567901 C280.286054,9.84567901 252.178271,27.9850279 237.982649,27.9850279 C223.787028,27.9850279 256.893335,9.84567901 268.589695,9.84567901 Z" id="Path-2"></path>
                    <path d="M286.75175,27.8295975 C301.384025,27.8295975 277.963351,51.3931501 263.331076,51.3931501 C248.698801,51.3931501 272.119475,27.8295975 286.75175,27.8295975 Z" id="Path-2"></path>
                    <path d="M309.370163,0 C328.790555,0 302.868047,11.2090387 283.447655,11.2090387 C264.027263,11.2090387 289.949771,1.90799967e-15 309.370163,0 Z" id="Path-2"></path>
                    <path d="M325.534962,13.4858452 C344.955354,13.4858452 325.822068,25.1055891 306.401676,25.1055891 C286.981284,25.1055891 306.11457,13.4858452 325.534962,13.4858452 Z" id="Path-2"></path>
                    <path d="M334.886347,2.07458705 C354.306739,2.07458705 363.900228,6.84259535 344.479836,6.84259535 C325.059444,6.84259535 315.465955,2.07458705 334.886347,2.07458705 Z" id="Path-2"></path>
                    <path d="M361.010524,11.6358025 C380.430917,11.6358025 396.774356,24.0526371 380.036872,24.0526371 C363.299388,24.0526371 341.590132,11.6358025 361.010524,11.6358025 Z" id="Path-2"></path>
                    <path d="M394.130069,25.5166234 C399.844171,25.5166234 417.465845,49.8732549 410.630458,49.8732549 C403.795071,49.8732549 388.415967,25.5166234 394.130069,25.5166234 Z" id="Path-2"></path>
                    <path d="M92.5839285,81.4506173 C112.004321,81.4506173 109.995455,106.320703 90.5750631,106.320703 C71.1546711,106.320703 73.1635364,81.4506173 92.5839285,81.4506173 Z" id="Path-2"></path>
                    <path d="M88.4942302,57.3544813 C107.914622,57.3544813 105.625759,73.5312399 86.2053674,73.5312399 C66.7849753,73.5312399 69.0738381,57.3544813 88.4942302,57.3544813 Z" id="Path-2"></path>
                    <path d="M112.103193,75.2298983 C122.981346,75.2298983 140.932191,89.1083326 134.213404,89.1083326 C127.494618,89.1083326 101.225039,75.2298983 112.103193,75.2298983 Z" id="Path-2"></path>
                    <path d="M159.232762,125.31185 C179.021125,125.31185 163.646147,154.762985 145.374291,154.762985 C127.102435,154.762985 139.551058,125.31185 159.232762,125.31185 Z" id="Path-2"></path>
                    <path d="M21.3728779,184.382716 C31.3311372,184.382716 61.9487278,219.119537 45.2728647,219.119537 C28.5970015,219.119537 11.4146185,184.382716 21.3728779,184.382716 Z" id="Path-2"></path>
                    <path d="M9.49778575,127.101974 C23.7540011,127.101974 27.7064094,174.821767 13.1894117,174.821767 C-1.32758603,174.821767 -4.75842956,127.101974 9.49778575,127.101974 Z" id="Path-2"></path>
                    <path d="M47.2232795,138.734568 C62.8193339,138.734568 67.5850722,173.324883 50.275348,173.324883 C32.9656237,173.324883 31.6272251,138.734568 47.2232795,138.734568 Z" id="Path-2"></path>
                    <path d="M69.4035763,178.117284 C91.7993284,178.117284 106.213731,199.89365 83.8179786,199.89365 C61.4222264,199.89365 47.0078241,178.117284 69.4035763,178.117284 Z" id="Path-2"></path>
                    <path d="M64.5546398,220.654283 C84.646474,215.650769 123.487258,225.66057 104.066866,230.555915 C84.646474,235.451259 44.4628057,225.657797 64.5546398,220.654283 Z" id="Path-2"></path>
                    <path d="M150.000221,197.314894 C161.409788,197.314894 134.767685,221.687006 120.779886,221.687006 C109.654724,221.687006 136.566167,197.314894 150.000221,197.314894 Z" id="Path-2"></path>
                    <path d="M131.688349,162.006173 C151.108741,162.006173 133.135425,190.071706 113.715033,190.071706 C94.2946413,190.071706 112.267957,162.006173 131.688349,162.006173 Z" id="Path-2"></path>
                    <path d="M181.892915,161.111111 C197.113684,161.111111 175.673926,190.402398 161.5561,190.402398 C147.438273,190.402398 166.672145,161.111111 181.892915,161.111111 Z" id="Path-2"></path>
                </g>
            </g>
        </g>
</svg>