<svg width="512px" height="512px" viewBox="0 0 512 512" version="1.1" xmlns="http://www.w3.org/2000/svg" xmlns:xlink="http://www.w3.org/1999/xlink">
    <circle id="Oval" fill="#333333" cx="256" cy="256" r="256"></circle>
    <g id="Infinitacle-white" transform="translate(104.000000, 173.000000)" fill="#FFFFFF">
        <path d="M171.769974,66.8843036 C192.843858,40.5120692 216.355965,26.65443 242.306296,25.3113858 C268.223349,25.3113858 303.985235,42.2197356 303.985235,84.5029295 C303.985235,124.314431 283.191615,165.960136 226.80299,165.960136 C196.637174,165.960136 167.055925,147.615111 149.287857,129.827571 C110.55413,91.0513917 93.0690069,34.7694606 58.6921955,34.7694606 C36.7372762,34.7694606 20.0530103,43.1529924 8.63939771,59.9200562 C21.6928389,26.8422482 45.3516347,8.58233956 79.6157851,5.14033025 C118.469161,2.98509912 139.124055,33.4170911 173.108688,68.2848656 C207.093321,103.15264 251.056921,114.608196 251.056921,86.5388175 C251.056921,57.4614274 203.886266,76.7093557 194.890187,86.5388175 C188.033609,82.0738399 180.326871,75.5223352 171.769974,66.8843036 Z" id="Path"></path>
        <path d="M15.599101,61.1638994 C29.1785299,61.1638994 26.7939761,80.9975816 13.2145471,80.9975816 C-0.364881903,80.9975816 2.01967199,61.1638994 15.599101,61.1638994 Z" id="Path-2"></path>
        <path d="M45.9713274,72.0204365 C60.3852351,72.0204365 55.5449285,94.2370921 41.1310209,94.2370921 C26.7171132,94.2370921 31.5574198,72.0204365 45.9713274,72.0204365 Z" id="Path-2"></path>
        <path d="M36.3243045,44.4647912 C49.9037334,44.4647912 47.8132031,62.2225532 34.2337741,62.2225532 C20.6543452,62.2225532 22.7448755,44.4647912 36.3243045,44.4647912 Z" id="Path-2"></path>
        <path d="M177.102708,39.4546739 C185.806181,39.4546739 177.102708,54.6913536 165.730931,54.6913536 C154.359154,54.6913536 168.399234,39.4546739 177.102708,39.4546739 Z" id="Path-2"></path>
        <path d="M161.417116,27.4733149 C167.537425,27.4733149 154.182641,39.3929787 148.970895,39.3929787 C143.759148,39.3929787 155.296807,27.4733149 161.417116,27.4733149 Z" id="Path-2"></path>
        <path d="M187.807469,6.88891132 C195.98598,6.88891132 176.332018,19.5808106 166.405934,19.5808106 C156.479851,19.5808106 179.628958,6.88891132 187.807469,6.88891132 Z" id="Path-2"></path>
        <path d="M200.507024,19.4720576 C210.738432,19.4720576 194.361863,35.9592114 184.130456,35.9592114 C173.899048,35.9592114 190.275617,19.4720576 200.507024,19.4720576 Z" id="Path-2"></path>
        <path d="M216.322624,0 C229.902053,0 211.776113,7.84283883 198.196684,7.84283883 C184.617255,7.84283883 202.743195,1.33500599e-15 216.322624,0 Z" id="Path-2"></path>
        <path d="M227.625626,9.43589482 C241.205055,9.43589482 227.826381,17.5660995 214.246952,17.5660995 C200.667523,17.5660995 214.046197,9.43589482 227.625626,9.43589482 Z" id="Path-2"></path>
        <path d="M234.164447,1.45156532 C247.743876,1.45156532 254.451985,4.78768732 240.872556,4.78768732 C227.293127,4.78768732 220.585018,1.45156532 234.164447,1.45156532 Z" id="Path-2"></path>
        <path d="M252.431401,8.14144065 C266.01083,8.14144065 277.438744,16.8293608 265.7353,16.8293608 C254.031856,16.8293608 238.851972,8.14144065 252.431401,8.14144065 Z" id="Path-2"></path>
        <path d="M275.589765,17.8536956 C279.585268,17.8536956 291.906969,34.8957578 287.127423,34.8957578 C282.347878,34.8957578 271.594262,17.8536956 275.589765,17.8536956 Z" id="Path-2"></path>
        <path d="M64.7379763,56.9900845 C78.3174053,56.9900845 76.9127352,74.3914047 63.3333062,74.3914047 C49.7538772,74.3914047 51.1585473,56.9900845 64.7379763,56.9900845 Z" id="Path-2"></path>
        <path d="M61.8783138,40.1302881 C75.4577427,40.1302881 73.8572884,51.4489849 60.2778595,51.4489849 C46.6984305,51.4489849 48.2988848,40.1302881 61.8783138,40.1302881 Z" id="Path-2"></path>
        <path d="M78.3865401,52.6375171 C85.9929317,52.6375171 98.5448014,62.3481021 93.8467868,62.3481021 C89.1487722,62.3481021 70.7801485,52.6375171 78.3865401,52.6375171 Z" id="Path-2"></path>
        <path d="M111.341211,87.679298 C125.177939,87.679298 114.427207,108.285927 101.650876,108.285927 C88.8745442,108.285927 97.579064,87.679298 111.341211,87.679298 Z" id="Path-2"></path>
        <path d="M14.9446765,129.010521 C21.9078457,129.010521 43.3167542,153.315485 31.6563975,153.315485 C19.9960407,153.315485 7.98150734,129.010521 14.9446765,129.010521 Z" id="Path-2"></path>
        <path d="M6.64118967,88.9318273 C16.6096426,88.9318273 19.3733071,122.320832 9.22250584,122.320832 C-0.928295381,122.320832 -3.32726322,88.9318273 6.64118967,88.9318273 Z" id="Path-2"></path>
        <path d="M33.0201969,97.0710231 C43.925513,97.0710231 47.2578867,121.273479 35.1543117,121.273479 C23.0507368,121.273479 22.1148808,97.0710231 33.0201969,97.0710231 Z" id="Path-2"></path>
        <path d="M48.5294494,124.626668 C64.189356,124.626668 74.2684189,139.863348 58.6085123,139.863348 C42.9486057,139.863348 32.8695428,124.626668 48.5294494,124.626668 Z" id="Path-2"></path>
        <path d="M45.1389006,154.38933 C59.1878257,150.888427 86.3466837,157.892173 72.7672547,161.317391 C59.1878257,164.742609 31.0899754,157.890232 45.1389006,154.38933 Z" id="Path-2"></path>
        <path d="M104.88549,138.059021 C112.863466,138.059021 94.2343592,155.111915 84.4535928,155.111915 C76.674484,155.111915 95.4919224,138.059021 104.88549,138.059021 Z" id="Path-2"></path>
        <path d="M92.0811782,113.353904 C105.660607,113.353904 93.0930255,132.991043 79.5135966,132.991043 C65.9341676,132.991043 78.5017492,113.353904 92.0811782,113.353904 Z" id="Path-2"></path>
        <path d="M127.185997,112.72764 C137.8289,112.72764 122.837459,133.222425 112.965772,133.222425 C103.094085,133.222425 116.543093,112.72764 127.185997,112.72764 Z" id="Path-2"></path>
    </g>
</svg>