<svg height="80" viewBox="0 0 512 512" width="80" xmlns="http://www.w3.org/2000/svg"><circle cx="256" cy="256" fill="#333" r="256"/><g fill="#fff" transform="translate(104 173)"><path d="m171.769974 66.8843036c21.073884-26.3722344 44.585991-40.2298736 70.536322-41.5729178 25.917053 0 61.678939 16.9083498 61.678939 59.1915437 0 39.8115015-20.79362 81.4572065-77.182245 81.4572065-30.165816 0-59.747065-18.345025-77.515133-36.132565-38.733727-38.7761793-56.2188501-95.0581104-90.5956615-95.0581104-21.9549193 0-38.6391852 8.3835318-50.05279779 25.1505956 13.05344119-33.077808 36.71223699-51.33771664 70.97638739-54.77972595 38.8533759-2.15523113 59.5082699 28.27676085 93.4929029 63.14453535 33.984633 34.8677744 77.948233 46.3233304 77.948233 18.2539519 0-29.0773901-47.170655-9.8294618-56.166734 0-6.856578-4.4649776-14.563316-11.0164823-23.120213-19.6545139z"/><path d="m15.599101 61.1638994c13.5794289 0 11.1948751 19.8336822-2.3845539 19.8336822-13.579429 0-11.19487511-19.8336822 2.3845539-19.8336822z"/><path d="m45.9713274 72.0204365c14.4139077 0 9.5736011 22.2166556-4.8403065 22.2166556-14.4139077 0-9.5736011-22.2166556 4.8403065-22.2166556z"/><path d="m36.3243045 44.4647912c13.5794289 0 11.4888986 17.757762-2.0905304 17.757762-13.5794289 0-11.4888986-17.757762 2.0905304-17.757762z"/><path d="m177.102708 39.4546739c8.703473 0 0 15.2366797-11.371777 15.2366797s2.668303-15.2366797 11.371777-15.2366797z"/><path d="m161.417116 27.4733149c6.120309 0-7.234475 11.9196638-12.446221 11.9196638-5.211747 0 6.325912-11.9196638 12.446221-11.9196638z"/><path d="m187.807469 6.88891132c8.178511 0-11.475451 12.69189928-21.401535 12.69189928-9.926083 0 13.223024-12.69189928 21.401535-12.69189928z"/><path d="m200.507024 19.4720576c10.231408 0-6.145161 16.4871538-16.376568 16.4871538-10.231408 0 6.145161-16.4871538 16.376568-16.4871538z"/><path d="m216.322624 0c13.579429 0-4.546511 7.84283883-18.12594 7.84283883s4.546511-7.84283883 18.12594-7.84283883z"/><path d="m227.625626 9.43589482c13.579429 0 .200755 8.13020468-13.378674 8.13020468s-.200755-8.13020468 13.378674-8.13020468z"/><path d="m234.164447 1.45156532c13.579429 0 20.287538 3.336122 6.708109 3.336122s-20.287538-3.336122-6.708109-3.336122z"/><path d="m252.431401 8.14144065c13.579429 0 25.007343 8.68792015 13.303899 8.68792015s-26.883328-8.68792015-13.303899-8.68792015z"/><path d="m275.589765 17.8536956c3.995503 0 16.317204 17.0420622 11.537658 17.0420622-4.779545 0-15.533161-17.0420622-11.537658-17.0420622z"/><path d="m64.7379763 56.9900845c13.579429 0 12.1747589 17.4013202-1.4046701 17.4013202s-12.1747589-17.4013202 1.4046701-17.4013202z"/><path d="m61.8783138 40.1302881c13.5794289 0 11.9789746 11.3186968-1.6004543 11.3186968-13.579429 0-11.9789747-11.3186968 1.6004543-11.3186968z"/><path d="m78.3865401 52.6375171c7.6063916 0 20.1582613 9.710585 15.4602467 9.710585s-23.0666383-9.710585-15.4602467-9.710585z"/><path d="m111.341211 87.679298c13.836728 0 3.085996 20.606629-9.690335 20.606629-12.7763318 0-4.071812-20.606629 9.690335-20.606629z"/><path d="m14.9446765 129.010521c6.9631692 0 28.3720777 24.304964 16.711721 24.304964-11.6603568 0-23.67489016-24.304964-16.711721-24.304964z"/><path d="m6.64118967 88.9318273c9.96845293 0 12.73211743 33.3890047 2.58131617 33.3890047-10.15080122 0-12.54976906-33.3890047-2.58131617-33.3890047z"/><path d="m33.0201969 97.0710231c10.9053161 0 14.2376898 24.2024559 2.1341148 24.2024559-12.1035749 0-13.0394309-24.2024559-2.1341148-24.2024559z"/><path d="m48.5294494 124.626668c15.6599066 0 25.7389695 15.23668 10.0790629 15.23668s-25.7389695-15.23668-10.0790629-15.23668z"/><path d="m45.1389006 154.38933c14.0489251-3.500903 41.2077831 3.502843 27.6283541 6.928061s-41.6772793-3.427159-27.6283541-6.928061z"/><path d="m104.88549 138.059021c7.977976 0-10.6511308 17.052894-20.4318972 17.052894-7.7791088 0 11.0383296-17.052894 20.4318972-17.052894z"/><path d="m92.0811782 113.353904c13.5794288 0 1.0118473 19.637139-12.5675816 19.637139-13.579429 0-1.0118474-19.637139 12.5675816-19.637139z"/><path d="m127.185997 112.72764c10.642903 0-4.348538 20.494785-14.220225 20.494785s3.577321-20.494785 14.220225-20.494785z"/></g></svg>
