<svg width="14px" height="16px" viewBox="0 0 14 16" version="1.1" xmlns="http://www.w3.org/2000/svg" xmlns:xlink="http://www.w3.org/1999/xlink">
    <g id="octobox" fill="#020302">
        <path d="M13.58,4.71 L12.908,4.229 C12.766,3.566 12.461,2.994 12.025,2.522 C12.122,2.281 12.438,1.322 11.928,0.022 C11.928,0.022 11.14,-0.227 9.348,1.004 C8.949,0.892 8.536,0.833 8.118,0.8 L7,0 L5.882,0.8 C5.463,0.833 5.05,0.892 4.652,1.004 C2.86,-0.234 2.072,0.022 2.072,0.022 C1.562,1.322 1.877,2.281 1.975,2.522 C1.539,2.994 1.234,3.566 1.092,4.229 L0.42,4.71 C0.16,4.89 8.8817842e-16,5.19 8.8817842e-16,5.52 L8.8817842e-16,14 C8.8817842e-16,14.55 0.45,15 1,15 L13,15 C13.55,15 14,14.55 14,14 L14,5.52 C14,5.19 13.85,4.9 13.58,4.71 Z M13,13.5 L8.5,10.5 L13,7.5 L13,13.5 Z M2,14 L7,11 L12,14 L2,14 Z M1,7.5 L5.5,10.5 L1,13.5 L1,7.5 Z M7,10 L2.58,7.227 C2.541,7.011 2.515,6.787 2.515,6.548 C2.515,5.974 2.8,5.43 3.28,4.984 C4.083,4.245 5.455,4.637 7,4.637 C8.553,4.637 9.91,4.245 10.72,4.984 C11.207,5.43 11.485,5.966 11.485,6.548 C11.485,6.78 11.459,6.998 11.421,7.209 L7,10 Z M8.8828,5.2944 C8.3878,5.2944 7.9828,5.8904 7.9828,6.6384 C7.9828,7.3864 8.3878,7.9904 8.8828,7.9904 C9.3778,7.9904 9.7818,7.3864 9.7818,6.6384 C9.7818,5.8904 9.3848,5.2944 8.8828,5.2944 Z M5.1177,5.2944 C4.6227,5.2944 4.2177,5.8984 4.2177,6.6384 C4.2177,7.3784 4.6227,7.9904 5.1177,7.9904 C5.6127,7.9904 6.0177,7.3864 6.0177,6.6384 C6.0177,5.8904 5.6127,5.2944 5.1177,5.2944 Z"></path>
    </g>
</svg>
